HIERARCHY
ROOT Hips
{
  OFFSET 53.31 85.4638 -4.15198
  CHANNELS 6 Xposition Yposition Zposition Zrotation Xrotation Yrotation
  JOINT spine
  {
    OFFSET 0 6.3926 0.367606
    CHANNELS 3 Zrotation Xrotation Yrotation
    JOINT spine1
    {
      OFFSET 0 9.17611 0
      CHANNELS 3 Zrotation Xrotation Yrotation
      JOINT spine2
      {
        OFFSET 0 8.79238 0
        CHANNELS 3 Zrotation Xrotation Yrotation
        JOINT Neck
        {
          OFFSET 0 22.5737 1.07624
          CHANNELS 3 Zrotation Xrotation Yrotation
          JOINT Head
          {
            OFFSET 0 6.82011 0
            CHANNELS 3 Zrotation Xrotation Yrotation
            End Site
            {
              OFFSET 0 16.5085 -5.44427
            }
          }
        }
        JOINT RightShoulder
        {
          OFFSET -3.70221 9.49509 -0.515508
          CHANNELS 3 Zrotation Xrotation Yrotation
          JOINT RightArm
          {
            OFFSET 0 12.4537 0
            CHANNELS 3 Zrotation Xrotation Yrotation
            JOINT RightArmRoll
            {
              OFFSET 0 6.28685 0
              CHANNELS 3 Zrotation Xrotation Yrotation
              JOINT RightForeArm
              {
                OFFSET 0 18.3114 0
                CHANNELS 3 Zrotation Xrotation Yrotation
                JOINT RightForeArmRoll
                {
                  OFFSET 0 7.05482 0
                  CHANNELS 3 Zrotation Xrotation Yrotation
                  JOINT RightHand
                  {
                    OFFSET 0 14.1575 0
                    CHANNELS 3 Zrotation Xrotation Yrotation
                    End Site
                    {
                      OFFSET 0 0 0
                    }
                  }
                }
              }
            }
          }
        }
        JOINT LeftShoulder
        {
          OFFSET 3.70221 9.49509 -0.515508
          CHANNELS 3 Zrotation Xrotation Yrotation
          JOINT LeftArm
          {
            OFFSET 0 12.4537 0
            CHANNELS 3 Zrotation Xrotation Yrotation
            JOINT LeftArmRoll
            {
              OFFSET 0 6.28686 0
              CHANNELS 3 Zrotation Xrotation Yrotation
              JOINT LeftForeArm
              {
                OFFSET 0 18.3114 0
                CHANNELS 3 Zrotation Xrotation Yrotation
                JOINT LeftForeArmRoll
                {
                  OFFSET 0 7.05483 0
                  CHANNELS 3 Zrotation Xrotation Yrotation
                  JOINT LeftHand
                  {
                    OFFSET 0 14.1575 0
                    CHANNELS 3 Zrotation Xrotation Yrotation
                    End Site
                    {
                      OFFSET 0 0 0
                    }
                  }
                }
              }
            }
          }
        }
      }
    }
  }
  JOINT RightUpLeg
  {
    OFFSET -5.66616 -1.03903 -0.87161
    CHANNELS 3 Zrotation Xrotation Yrotation
    JOINT RightUpLegRoll
    {
      OFFSET 0 16.6005 0
      CHANNELS 3 Zrotation Xrotation Yrotation
      JOINT RightLeg
      {
        OFFSET 0 -20.5572 0
        CHANNELS 3 Zrotation Xrotation Yrotation
        JOINT RightLegRoll
        {
          OFFSET 0 20.6244 0
          CHANNELS 3 Zrotation Xrotation Yrotation
          JOINT RightFoot
          {
            OFFSET 0 17.1664 0
            CHANNELS 3 Zrotation Xrotation Yrotation
            JOINT RightToeBase
            {
              OFFSET 0 14.3502 0
              CHANNELS 3 Zrotation Xrotation Yrotation
              End Site
              {
                OFFSET 0.00608252 6.9497 -0.801061
              }
            }
          }
        }
      }
    }
  }
  JOINT LeftUpLeg
  {
    OFFSET 5.66616 -1.03903 -0.87161
    CHANNELS 3 Zrotation Xrotation Yrotation
    JOINT LeftUpLegRoll
    {
      OFFSET 0 16.6006 0
      CHANNELS 3 Zrotation Xrotation Yrotation
      JOINT LeftLeg
      {
        OFFSET 0 20.5571 0
        CHANNELS 3 Zrotation Xrotation Yrotation
        JOINT LeftLegRoll
        {
          OFFSET 0 20.8151 0
          CHANNELS 3 Zrotation Xrotation Yrotation
          JOINT LeftFoot
          {
            OFFSET 0 16.9757 0
            CHANNELS 3 Zrotation Xrotation Yrotation
            JOINT LeftToeBase
            {
              OFFSET 0 14.3502 0
              CHANNELS 3 Zrotation Xrotation Yrotation
              End Site
              {
                OFFSET -0.0272592 6.94971 -0.801061
              }
            }
          }
        }
      }
    }
  }
}
MOTION
Frames: 9
Frame Time: 0.00208333
52.6067 85.5426 12.9403 -0.891003 -0.953792 -0.325989 -0.446919 -1.6758 -0.250223 -0.898358 0.652887 -0.455301 -0.89334 2.29782 -0.435961 7.25676 9.44239 -1.13317 -4.2863 2.72021 0.708806 62.6155 -5.60619 -3.67473 109.435 17.4212 -0.117678 9.06361e-007 -4.38005e-009 -3.32039e-006 15.9968 7.53289 -1.28114 6.41821e-006 -4.29427e-006 -3.00997 8.029 -4.95141 0.697699 -51.8111 -1.77674 0.315145 -115.134 16.0023 3.96749 4.91994e-006 -3.04725e-006 3.96775e-006 -11.9641 5.98266 1.12558 -4.35586e-006 -2.81467e-006 3.00527 -8.02886 -4.95145 -0.697693 178.279 1.30124 -0.142296 180 7.01576e-015 179.055 175.817 5.83647 179.82 -3.89279e-006 3.13346e-006 0.0590074 -18.0775 67.4829 19.1147 8.13593 25.2327 -3.48749 -178.073 -0.993792 1.92409 4.54188e-006 -4.6773e-006 -1.02404 -1.83514 -6.39686 0.33956 -8.95488e-007 -4.00096e-006 -0.0918588 19.4202 69.1201 -20.492 -8.17548 25.833 3.44205 
52.6035 85.5449 12.9381 -0.892236 -0.955811 -0.326876 -0.445778 -1.67527 -0.250479 -0.896408 0.65393 -0.455746 -0.891393 2.29887 -0.436766 7.24279 9.44748 -1.13047 -4.27127 2.72159 0.708747 62.6128 -5.60346 -3.67295 109.429 17.418 -0.0993514 9.06361e-007 -4.38005e-009 -3.32039e-006 15.9903 7.51109 -1.27772 6.41821e-006 -4.29427e-006 -3.00997 8.029 -4.95141 0.697699 -51.8181 -1.77245 0.312869 -115.122 15.9942 3.94723 4.91994e-006 -3.04725e-006 3.96775e-006 -11.9587 5.96769 1.12384 -4.35586e-006 -2.81467e-006 3.00527 -8.02886 -4.95145 -0.697693 178.28 1.3 -0.141361 180 7.01576e-015 179.055 175.815 5.838 179.82 -3.89279e-006 3.13346e-006 0.0590074 -18.0768 67.482 19.1139 8.13593 25.2327 -3.48749 -178.072 -0.992979 1.92378 4.54188e-006 -4.6773e-006 -1.02404 -1.83405 -6.40262 0.339469 -8.95488e-007 -4.00096e-006 -0.091855 19.4238 69.124 -20.4958 -8.17536 25.8312 3.44056 
52.6027 85.5459 12.9395 -0.893506 -0.95797 -0.327748 -0.444579 -1.67478 -0.250747 -0.894388 0.654918 -0.456213 -0.889377 2.29986 -0.437607 7.2282 9.45299 -1.12772 -4.25561 2.72291 0.708607 62.61 -5.60064 -3.67111 109.424 17.4146 -0.0808949 9.06361e-007 -4.38006e-009 -3.32039e-006 15.9837 7.48942 -1.27431 6.41821e-006 -4.29427e-006 -3.00997 8.029 -4.95141 0.697699 -51.8256 -1.76776 0.310371 -115.108 15.9862 3.92643 4.91994e-006 -3.04725e-006 3.96775e-006 -11.9531 5.95248 1.12208 -4.35586e-006 -2.81467e-006 3.00527 -8.02886 -4.95145 -0.697693 178.281 1.29861 -0.140352 180 7.01576e-015 179.055 175.814 5.83953 179.82 -3.89279e-006 3.13346e-006 0.0590074 -18.0761 67.4811 19.1131 8.13593 25.2327 -3.48749 -178.07 -0.992352 1.92348 4.54188e-006 -4.6773e-006 -1.02404 -1.83287 -6.40828 0.339375 -8.95488e-007 -4.00096e-006 -0.0918494 19.4274 69.1279 -20.4997 -8.17523 25.8293 3.43896 
52.6043 85.5462 12.9418 -0.894802 -0.960227 -0.328609 -0.443338 -1.6743 -0.251025 -0.892319 0.655868 -0.456695 -0.887312 2.30081 -0.438472 7.21318 9.4588 -1.12495 -4.23951 2.72418 0.708412 62.607 -5.59776 -3.66922 109.418 17.411 -0.0623478 9.06361e-007 -4.38005e-009 -3.32039e-006 15.9771 7.46783 -1.2709 6.41821e-006 -4.29427e-006 -3.00997 8.029 -4.95141 0.697699 -51.8336 -1.7628 0.307718 -115.095 15.9782 3.90525 4.91995e-006 -3.04725e-006 3.96775e-006 -11.9473 5.93711 1.12031 -4.35586e-006 -2.81467e-006 3.00527 -8.02886 -4.95145 -0.697693 178.282 1.29712 -0.13929 180 7.01576e-015 179.055 175.812 5.84111 179.821 -3.89279e-006 3.13346e-006 0.0590074 -18.0754 67.4802 19.1124 8.13593 25.2327 -3.48749 -178.069 -0.991854 1.92321 4.54188e-006 -4.6773e-006 -1.02404 -1.83163 -6.41387 0.33928 -8.95488e-007 -4.00096e-006 -0.0918425 19.431 69.1318 -20.5035 -8.17508 25.8273 3.43729 
52.6003 85.5444 12.9313 -0.896112 -0.962541 -0.329465 -0.442073 -1.67383 -0.251307 -0.890223 0.656795 -0.457186 -0.88522 2.30174 -0.439351 7.1979 9.46478 -1.12217 -4.22318 2.72542 0.708185 62.6041 -5.59484 -3.66732 109.412 17.4073 -0.0437493 9.06361e-007 -4.38005e-009 -3.32039e-006 15.9706 7.44628 -1.2675 6.41821e-006 -4.29427e-006 -3.00997 8.029 -4.95141 0.697699 -51.8417 -1.75767 0.304976 -115.081 15.9702 3.88386 4.91994e-006 -3.04725e-006 3.96775e-006 -11.9414 5.92164 1.11854 -4.35586e-006 -2.81467e-006 3.00527 -8.02886 -4.95145 -0.697693 178.283 1.29557 -0.138198 180 7.01576e-015 179.055 175.81 5.84268 179.821 -3.89279e-006 3.13346e-006 0.0590074 -18.0747 67.4793 19.1116 8.13593 25.2327 -3.48749 -178.068 -0.99143 1.92294 4.54188e-006 -4.6773e-006 -1.02404 -1.83036 -6.4194 0.339185 -8.95488e-007 -4.00096e-006 -0.0918348 19.4346 69.1357 -20.5074 -8.17494 25.8252 3.43557 
52.6048 85.5449 12.935 -0.897427 -0.964868 -0.330319 -0.440803 -1.67337 -0.251591 -0.88812 0.657717 -0.45768 -0.883121 2.30266 -0.440233 7.18257 9.4708 -1.11937 -4.20677 2.72666 0.70795 62.6011 -5.59191 -3.6654 109.406 17.4036 -0.0251386 9.06361e-007 -4.38006e-009 -3.32039e-006 15.964 7.42475 -1.26409 6.41821e-006 -4.29427e-006 -3.00997 8.029 -4.95141 0.697699 -51.85 -1.7525 0.302211 -115.068 15.9622 3.86241 4.91994e-006 -3.04725e-006 3.96775e-006 -11.9354 5.90614 1.11676 -4.35586e-006 -2.81467e-006 3.00527 -8.02886 -4.95145 -0.697693 178.284 1.29401 -0.137099 180 7.01576e-015 179.055 175.807 5.84426 179.821 -3.89279e-006 3.13346e-006 0.0590074 -18.074 67.4783 19.1108 8.13593 25.2327 -3.48749 -178.067 -0.991024 1.92268 4.54188e-006 -4.6773e-006 -1.02404 -1.82908 -6.42493 0.339089 -8.95488e-007 -4.00096e-006 -0.091827 19.4382 69.1396 -20.5113 -8.17479 25.8231 3.43384 
52.6187 85.5448 12.9194 -0.898734 -0.967167 -0.331176 -0.439545 -1.6729 -0.251873 -0.88603 0.65865 -0.458168 -0.881036 2.30359 -0.441108 7.16736 9.47674 -1.11659 -4.1905 2.72791 0.70773 62.5982 -5.589 -3.6635 109.401 17.3999 -0.00655465 9.06361e-007 -4.38005e-009 -3.32039e-006 15.9574 7.40319 -1.26069 6.41821e-006 -4.29427e-006 -3.00997 8.029 -4.95141 0.697699 -51.8581 -1.74741 0.299491 -115.054 15.9543 3.84107 4.91994e-006 -3.04725e-006 3.96775e-006 -11.9295 5.89069 1.11499 -4.35586e-006 -2.81467e-006 3.00527 -8.02886 -4.95145 -0.697693 178.284 1.29247 -0.136015 180 7.01576e-015 179.055 175.805 5.84584 179.822 -3.89279e-006 3.13346e-006 0.0590074 -18.0733 67.4774 19.1101 8.13593 25.2327 -3.48749 -178.066 -0.990582 1.92241 4.54188e-006 -4.6773e-006 -1.02404 -1.82782 -6.43048 0.338993 -8.95488e-007 -4.00096e-006 -0.0918195 19.4418 69.1435 -20.5151 -8.17465 25.821 3.43213 
52.6157 85.5427 12.9221 -0.900022 -0.969397 -0.33204 -0.438316 -1.67242 -0.252148 -0.883975 0.659611 -0.458646 -0.878985 2.30456 -0.441966 7.15245 9.48246 -1.11383 -4.17453 2.7292 0.707551 62.5953 -5.58613 -3.66163 109.395 17.3964 0.0119634 9.06361e-007 -4.38005e-009 -3.32039e-006 15.9509 7.38158 -1.25728 6.41821e-006 -4.29427e-006 -3.00997 8.029 -4.95141 0.697699 -51.8659 -1.74252 0.296882 -115.041 15.9463 3.82001 4.91994e-006 -3.04725e-006 3.96775e-006 -11.9238 5.87536 1.11323 -4.35586e-006 -2.81467e-006 3.00527 -8.02886 -4.95145 -0.697693 178.285 1.29101 -0.134968 180 7.01576e-015 179.055 175.803 5.8474 179.822 -3.89279e-006 3.13346e-006 0.0590074 -18.0725 67.4765 19.1093 8.13593 25.2327 -3.48749 -178.065 -0.990047 1.92213 4.54188e-006 -4.6773e-006 -1.02404 -1.82659 -6.43609 0.338899 -8.95488e-007 -4.00096e-006 -0.091813 19.4454 69.1474 -20.519 -8.17451 25.819 3.43048 
52.6057 85.5431 12.9377 -0.901282 -0.971514 -0.332917 -0.437134 -1.67191 -0.252412 -0.881976 0.660615 -0.459107 -0.876989 2.30556 -0.442796 7.13805 9.48785 -1.11109 -4.15905 2.73053 0.707436 62.5924 -5.58334 -3.65981 109.389 17.393 0.0303767 9.06361e-007 -4.38006e-009 -3.32039e-006 15.9443 7.35986 -1.25387 6.41821e-006 -4.29427e-006 -3.00997 8.029 -4.95141 0.697699 -51.8733 -1.73795 0.294451 -115.028 15.9382 3.79938 4.91994e-006 -3.04725e-006 3.96775e-006 -11.9182 5.86023 1.11147 -4.35586e-006 -2.81467e-006 3.00527 -8.02886 -4.95145 -0.697693 178.286 1.28966 -0.133981 180 7.01576e-015 179.055 175.802 5.84891 179.822 -3.89279e-006 3.13346e-006 0.0590074 -18.0718 67.4756 19.1085 8.13593 25.2327 -3.48749 -178.064 -0.989364 1.92183 4.54188e-006 -4.6773e-006 -1.02404 -1.82544 -6.44178 0.338806 -8.95488e-007 -4.00096e-006 -0.0918079 19.449 69.1513 -20.5229 -8.17438 25.8171 3.42892 
